<svg width="25" height="24" viewBox="0 0 25 24" fill="none" xmlns="http://www.w3.org/2000/svg">
<path d="M20.46 7.82L12.76 12.28C12.45 12.46 12.06 12.46 11.74 12.28L4.04 7.82C3.49 7.5 3.35 6.75 3.77 6.28C4.06 5.95 4.39 5.68 4.74 5.49L10.16 2.49C11.32 1.84 13.2 1.84 14.36 2.49L19.78 5.49C20.13 5.68 20.46 5.96 20.75 6.28C21.15 6.75 21.01 7.5 20.46 7.82Z" fill="#3B82F6"/>
<path d="M11.68 14.14V20.96C11.68 21.72 10.91 22.22 10.23 21.89C8.17001 20.88 4.70001 18.99 4.70001 18.99C3.48001 18.3 2.48001 16.56 2.48001 15.13V9.97C2.48001 9.18 3.31001 8.68 3.99001 9.07L11.18 13.24C11.48 13.43 11.68 13.77 11.68 14.14Z" fill="#3B82F6"/>
<path d="M12.82 14.14V20.96C12.82 21.72 13.59 22.22 14.27 21.89C16.33 20.88 19.8 18.99 19.8 18.99C21.02 18.3 22.02 16.56 22.02 15.13V9.97C22.02 9.18 21.19 8.68 20.51 9.07L13.32 13.24C13.02 13.43 12.82 13.77 12.82 14.14Z" fill="#3B82F6"/>
</svg>
