<svg width="25" height="24" viewBox="0 0 25 24" fill="none" xmlns="http://www.w3.org/2000/svg">
<path d="M12.6667 2C7.14666 2 2.66666 6.48 2.66666 12C2.66666 17.52 7.14666 22 12.6667 22C18.1867 22 22.6667 17.52 22.6667 12C22.6667 6.48 18.1867 2 12.6667 2ZM12.6667 8.75C12.2567 8.75 11.9167 8.41 11.9167 8C11.9167 7.59 12.2567 7.25 12.6667 7.25C15.2867 7.25 17.4167 9.38 17.4167 12C17.4167 14.62 15.2867 16.75 12.6667 16.75C12.2567 16.75 11.9167 16.41 11.9167 16C11.9167 15.59 12.2567 15.25 12.6667 15.25C14.4567 15.25 15.9167 13.79 15.9167 12C15.9167 10.21 14.4567 8.75 12.6667 8.75ZM12.6667 19.75C8.39666 19.75 4.91666 16.27 4.91666 12C4.91666 11.59 5.25666 11.25 5.66666 11.25C6.07666 11.25 6.41666 11.59 6.41666 12C6.41666 15.45 9.21666 18.25 12.6667 18.25C16.1167 18.25 18.9167 15.45 18.9167 12C18.9167 8.55 16.1167 5.75 12.6667 5.75C12.2567 5.75 11.9167 5.41 11.9167 5C11.9167 4.59 12.2567 4.25 12.6667 4.25C16.9367 4.25 20.4167 7.73 20.4167 12C20.4167 16.27 16.9367 19.75 12.6667 19.75Z" fill="white"/>
</svg>
