<svg width="23" height="22" viewBox="0 0 23 22" fill="none" xmlns="http://www.w3.org/2000/svg">
<path fill-rule="evenodd" clip-rule="evenodd" d="M2.33331 11.1107C2.33331 10.731 2.64112 10.4232 3.02081 10.4232H14.0584C14.4381 10.4232 14.7459 10.731 14.7459 11.1107C14.7459 11.4904 14.4381 11.7982 14.0584 11.7982H3.02081C2.64112 11.7982 2.33331 11.4904 2.33331 11.1107Z" fill="white"/>
<path fill-rule="evenodd" clip-rule="evenodd" d="M10.8885 7.95249C11.1564 7.68345 11.5917 7.68256 11.8607 7.95049L14.5447 10.6235C14.6743 10.7525 14.7471 10.9278 14.7471 11.1106C14.7471 11.2934 14.6743 11.4687 14.5447 11.5978L11.8607 14.2708C11.5917 14.5387 11.1564 14.5378 10.8885 14.2688C10.6205 13.9997 10.6214 13.5644 10.8905 13.2965L13.0853 11.1106L10.8905 8.92476C10.6214 8.65682 10.6205 8.22152 10.8885 7.95249Z" fill="white"/>
<path fill-rule="evenodd" clip-rule="evenodd" d="M9.05275 4.07917C8.34076 4.60676 7.98483 5.46926 7.83845 7.05719C7.8036 7.43528 7.46884 7.71353 7.09075 7.67868C6.71266 7.64383 6.4344 7.30907 6.46926 6.93098C6.62538 5.23725 7.03486 3.86308 8.23412 2.97442C9.38391 2.12242 11.1162 1.83325 13.5705 1.83325C16.8245 1.83325 18.8252 2.34342 19.8519 4.01487C20.3413 4.8115 20.5575 5.79811 20.6626 6.92753C20.7673 8.05251 20.7673 9.40403 20.7673 10.9709V11.0289C20.7673 12.5958 20.7673 13.9473 20.6626 15.0723C20.5575 16.2017 20.3413 17.1883 19.8519 17.985C18.8252 19.6564 16.8245 20.1666 13.5705 20.1666C11.1162 20.1666 9.38391 19.8774 8.23412 19.0254C7.03486 18.1368 6.62538 16.7626 6.46926 15.0689C6.4344 14.6908 6.71266 14.356 7.09075 14.3212C7.46884 14.2863 7.8036 14.5646 7.83845 14.9426C7.98483 16.5306 8.34076 17.3931 9.05275 17.9207C9.81422 18.4849 11.139 18.7916 13.5705 18.7916C16.8258 18.7916 18.0797 18.243 18.6803 17.2653C19.0046 16.7373 19.1952 16.0018 19.2935 14.9449C19.3916 13.8906 19.3923 12.6015 19.3923 10.9999C19.3923 9.39832 19.3916 8.10925 19.2935 7.05491C19.1952 5.99808 19.0046 5.2625 18.6803 4.73456C18.0797 3.75684 16.8258 3.20825 13.5705 3.20825C11.139 3.20825 9.81422 3.51492 9.05275 4.07917Z" fill="white"/>
</svg>
