<svg width="25" height="24" viewBox="0 0 25 24" fill="none" xmlns="http://www.w3.org/2000/svg">
<path d="M19.5433 6.36001C18.5033 4.26001 16.4933 2.71001 14.1633 2.20001C11.7233 1.66001 9.22334 2.24001 7.31334 3.78001C5.39334 5.31001 4.30334 7.60001 4.30334 10.05C4.30334 12.64 5.85334 15.35 8.19334 16.92V17.75C8.18334 18.03 8.17334 18.46 8.51334 18.81C8.86334 19.17 9.38334 19.21 9.79334 19.21H14.9233C15.4633 19.21 15.8733 19.06 16.1533 18.78C16.5333 18.39 16.5233 17.89 16.5133 17.62V16.92C19.6133 14.83 21.5633 10.42 19.5433 6.36001Z" fill="white"/>
<path d="M15.5933 22C15.5333 22 15.4633 21.99 15.4033 21.97C13.3933 21.4 11.2833 21.4 9.27334 21.97C8.90334 22.07 8.51334 21.86 8.41334 21.49C8.30334 21.12 8.52335 20.73 8.89335 20.63C11.1533 19.99 13.5333 19.99 15.7933 20.63C16.1633 20.74 16.3833 21.12 16.2733 21.49C16.1733 21.8 15.8933 22 15.5933 22Z" fill="white"/>
</svg>
