<svg width="74" height="74" viewBox="0 0 74 74" fill="none" xmlns="http://www.w3.org/2000/svg">
<path d="M17.7422 10.7728C19.3321 7.81937 22.2704 6 25.4503 6L48.5497 6C51.7296 6 54.6679 7.81937 56.2578 10.7728L67.8076 32.2272C69.3975 35.1806 69.3975 38.8194 67.8076 41.7728L56.2578 63.2272C54.6679 66.1806 51.7296 68 48.5497 68H25.4503C22.2704 68 19.3321 66.1806 17.7422 63.2272L6.19244 41.7728C4.60252 38.8194 4.60252 35.1806 6.19244 32.2272L17.7422 10.7728Z" fill="#DC2626"/>
<path d="M37 28.5417C36.8833 28.5417 36.7667 28.53 36.6617 28.5067C36.545 28.4833 36.44 28.4483 36.335 28.4133C36.23 28.3667 36.125 28.3083 36.0316 28.25C35.9383 28.18 35.845 28.11 35.7633 28.0283C35.4367 27.7017 35.25 27.2583 35.25 26.7917C35.25 26.325 35.4367 25.8817 35.7633 25.555C35.845 25.4733 35.9383 25.4033 36.0316 25.3333C36.125 25.275 36.23 25.2167 36.335 25.1817C36.44 25.135 36.545 25.1 36.6617 25.0767C37.2217 24.96 37.8283 25.1467 38.2367 25.555C38.5633 25.8817 38.75 26.325 38.75 26.7917C38.75 27.2583 38.5633 27.7017 38.2367 28.0283C37.91 28.355 37.455 28.5417 37 28.5417Z" fill="white"/>
<path d="M36.7702 33.2685L36.7598 33.2664C36.6844 33.2513 36.6133 33.2289 36.5176 33.1972C36.4509 33.1662 36.3809 33.1278 36.314 33.0867C36.2255 33.0202 36.166 32.9739 36.1169 32.9248L35.7633 33.2783L36.1169 32.9248C35.8829 32.6908 35.75 32.3742 35.75 32.0417C35.75 31.7091 35.8829 31.3925 36.1169 31.1586C36.166 31.1095 36.2255 31.0631 36.3139 30.9967C36.3884 30.9511 36.448 30.9211 36.4931 30.906L36.516 30.8984L36.5381 30.8886C36.613 30.8553 36.6829 30.8323 36.7598 30.817L36.7598 30.817L36.7647 30.8159C36.9184 30.7836 37.0816 30.7836 37.2353 30.8159L37.2353 30.816L37.2402 30.817C37.3171 30.8323 37.387 30.8553 37.4619 30.8886L37.484 30.8984L37.5069 30.906C37.552 30.9211 37.6116 30.9511 37.6861 30.9967C37.7745 31.0631 37.834 31.1095 37.8831 31.1586C38.1171 31.3925 38.25 31.7091 38.25 32.0417C38.25 32.3742 38.1171 32.6908 37.8831 32.9248C37.834 32.9739 37.7745 33.0202 37.686 33.0867C37.6191 33.1278 37.5491 33.1662 37.4824 33.1972C37.3867 33.2289 37.3156 33.2513 37.2402 33.2664L37.2402 33.2663L37.2298 33.2686C37.165 33.283 37.0851 33.2917 37 33.2917C36.9149 33.2917 36.835 33.283 36.7702 33.2686L36.7702 33.2685Z" fill="white" stroke="white"/>
<path d="M37 38.4583C36.8833 38.4583 36.7667 38.4467 36.6617 38.4233C36.545 38.4 36.44 38.365 36.335 38.33C36.23 38.2833 36.125 38.225 36.0316 38.1667C35.9383 38.0967 35.845 38.0267 35.7633 37.945C35.6817 37.8633 35.6117 37.7817 35.5417 37.6767C35.4833 37.5833 35.425 37.4783 35.3783 37.3733C35.3433 37.2683 35.3084 37.1633 35.285 37.0467C35.2617 36.9417 35.25 36.825 35.25 36.7083C35.25 36.2417 35.4367 35.7983 35.7633 35.4717C35.845 35.39 35.9383 35.32 36.0316 35.25C36.125 35.1917 36.23 35.1333 36.335 35.0867C36.44 35.0517 36.545 35.0167 36.6617 34.9933C37.2217 34.8767 37.8283 35.0633 38.2367 35.4717C38.5633 35.7983 38.75 36.2417 38.75 36.7083C38.75 36.825 38.7383 36.9417 38.715 37.0467C38.6916 37.1633 38.6567 37.2683 38.61 37.3733C38.575 37.4783 38.5167 37.5833 38.4583 37.6767C38.3883 37.7817 38.3183 37.8633 38.2367 37.945C38.155 38.0267 38.0617 38.0967 37.9684 38.1667C37.875 38.225 37.77 38.2833 37.665 38.33C37.56 38.365 37.455 38.4 37.3383 38.4233C37.2333 38.4467 37.1167 38.4583 37 38.4583Z" fill="white"/>
<path d="M37 42.5417C36.6967 42.5417 36.3933 42.4133 36.1717 42.2033C35.9617 41.9817 35.8333 41.6783 35.8333 41.375C35.8333 41.0717 35.9617 40.7683 36.1717 40.5467C36.44 40.2783 36.8483 40.1617 37.2217 40.2317C37.3033 40.2433 37.3733 40.2667 37.4433 40.3017C37.5133 40.325 37.5833 40.36 37.6417 40.4067C37.7117 40.4533 37.77 40.5 37.8284 40.5467C38.0384 40.7683 38.1667 41.0717 38.1667 41.375C38.1667 41.6783 38.0384 41.9817 37.8284 42.2033C37.77 42.25 37.7117 42.2967 37.6417 42.3433C37.5833 42.39 37.5133 42.425 37.4433 42.4483C37.3733 42.4833 37.3033 42.5067 37.2217 42.5183C37.1517 42.53 37.07 42.5417 37 42.5417Z" fill="white"/>
<path d="M37 46.3333C36.8833 46.3333 36.7667 46.31 36.6617 46.2633C36.5567 46.2167 36.4633 46.1583 36.3816 46.0767C36.3 45.995 36.23 45.9017 36.195 45.7967C36.1483 45.6917 36.125 45.575 36.125 45.4583C36.125 45.225 36.2183 45.0033 36.3816 44.84C36.4633 44.7583 36.5567 44.7 36.6617 44.6533C36.8834 44.56 37.1166 44.56 37.3383 44.6533C37.4433 44.7 37.5367 44.7583 37.6184 44.84C37.7 44.9217 37.7583 45.015 37.805 45.12C37.8517 45.225 37.875 45.3417 37.875 45.4583C37.875 45.575 37.8517 45.6917 37.805 45.7967C37.7583 45.9017 37.7 45.995 37.6184 46.0767C37.5367 46.1583 37.4433 46.2167 37.3383 46.2633C37.2216 46.31 37.1167 46.3333 37 46.3333Z" fill="white"/>
<path d="M37 48.7483C36.8483 48.7483 36.6967 48.69 36.5917 48.5733C36.475 48.4683 36.4167 48.3167 36.4167 48.165C36.4167 48.0133 36.475 47.8617 36.5917 47.7567C36.8017 47.535 37.1983 47.535 37.4083 47.7567C37.525 47.8617 37.5833 48.0133 37.5833 48.165C37.5833 48.3167 37.525 48.4683 37.4083 48.5733C37.3033 48.69 37.1517 48.7483 37 48.7483Z" fill="white"/>
<path d="M27.0833 33.7917C26.6167 33.7917 26.1733 33.605 25.8467 33.2783C25.52 32.9517 25.3333 32.5083 25.3333 32.0417C25.3333 31.5867 25.52 31.1317 25.8467 30.805C26.4883 30.1517 27.6667 30.1517 28.32 30.805C28.6467 31.1317 28.8333 31.5867 28.8333 32.0417C28.8333 32.5083 28.6467 32.9517 28.32 33.2783C28.2383 33.36 28.145 33.43 28.0517 33.5C27.9584 33.5583 27.8534 33.6167 27.7484 33.6517C27.6434 33.6983 27.5383 33.7333 27.4217 33.7567C27.3167 33.78 27.2 33.7917 27.0833 33.7917Z" fill="white"/>
<path d="M46.9167 33.7917C46.4617 33.7917 46.0067 33.605 45.68 33.2783C45.3533 32.9517 45.1667 32.4967 45.1667 32.0417C45.1667 31.925 45.1784 31.8083 45.2017 31.7033C45.225 31.5867 45.26 31.4817 45.295 31.3767C45.3416 31.2717 45.4 31.1667 45.4583 31.0733C45.5283 30.98 45.5983 30.8867 45.68 30.805C45.7617 30.7233 45.855 30.6533 45.9483 30.5833C46.0416 30.525 46.1466 30.4667 46.2516 30.4317C46.3566 30.385 46.4617 30.35 46.5783 30.3267C46.8 30.28 47.0333 30.28 47.255 30.3267C47.3716 30.35 47.4767 30.385 47.5817 30.4317C47.6867 30.4667 47.7917 30.525 47.885 30.5833C47.9783 30.6533 48.0717 30.7233 48.1533 30.805C48.235 30.8867 48.305 30.98 48.375 31.0733C48.4333 31.1667 48.4917 31.2717 48.5267 31.3767C48.5733 31.4817 48.6083 31.5867 48.6316 31.7033C48.655 31.8083 48.6667 31.925 48.6667 32.0417C48.6667 32.5083 48.48 32.9517 48.1533 33.2783C48.0717 33.36 47.9783 33.43 47.885 33.5C47.7917 33.5583 47.6867 33.6167 47.5817 33.6633C47.4767 33.6983 47.3716 33.7333 47.255 33.7567C47.1383 33.78 47.0333 33.7917 46.9167 33.7917Z" fill="white"/>
<path d="M46.9167 37.875C46.8467 37.875 46.765 37.8633 46.695 37.8516C46.6133 37.84 46.5433 37.8167 46.4733 37.7817C46.4033 37.7583 46.3333 37.7233 46.2633 37.6767C46.205 37.6417 46.1466 37.5833 46.0883 37.5367C46.0416 37.4783 45.9833 37.42 45.9483 37.3617C45.9016 37.2917 45.8667 37.2217 45.8434 37.1517C45.8084 37.0817 45.785 37.0117 45.7734 36.9417C45.7617 36.86 45.75 36.79 45.75 36.7083C45.75 36.405 45.8783 36.1016 46.0883 35.88C46.1466 35.8333 46.205 35.7867 46.2633 35.74C46.3333 35.6933 46.4033 35.6583 46.4733 35.635C46.5433 35.6 46.6133 35.5767 46.695 35.565C46.835 35.53 46.9867 35.53 47.1383 35.565C47.22 35.5767 47.29 35.6 47.36 35.635C47.43 35.6583 47.5 35.6933 47.5583 35.74C47.6283 35.7867 47.6867 35.8333 47.745 35.88C47.955 36.1016 48.0833 36.405 48.0833 36.7083C48.0833 36.79 48.0716 36.86 48.06 36.9417C48.0483 37.0117 48.025 37.0817 47.99 37.1517C47.9666 37.2217 47.9317 37.2917 47.885 37.3617C47.8384 37.42 47.7917 37.4783 47.745 37.5367C47.6867 37.5833 47.6283 37.6417 47.5583 37.6767C47.5 37.7233 47.43 37.7583 47.36 37.7817C47.29 37.8167 47.22 37.84 47.1383 37.8516C47.0683 37.8633 46.9867 37.875 46.9167 37.875Z" fill="white"/>
<path d="M27.0833 37.875C26.78 37.875 26.4766 37.7467 26.255 37.5367C26.045 37.315 25.9167 37.0117 25.9167 36.7083C25.9167 36.405 26.045 36.1017 26.255 35.88C26.5816 35.5533 27.095 35.4483 27.5267 35.635C27.6783 35.6933 27.795 35.775 27.9117 35.88C28.1217 36.1017 28.25 36.405 28.25 36.7083C28.25 37.0117 28.1217 37.315 27.9117 37.5367C27.69 37.7467 27.3867 37.875 27.0833 37.875Z" fill="white"/>
<path d="M46.9167 41.0833C46.6833 41.0833 46.4616 40.99 46.2983 40.8267C46.135 40.6633 46.0417 40.4417 46.0417 40.2083C46.0417 40.0917 46.065 39.9867 46.1117 39.87C46.1583 39.765 46.2166 39.6717 46.2983 39.59C46.5433 39.345 46.9283 39.2633 47.255 39.4033C47.36 39.45 47.4534 39.5083 47.535 39.59C47.6167 39.6717 47.675 39.765 47.7217 39.87C47.7683 39.9867 47.7917 40.0917 47.7917 40.2083C47.7917 40.4417 47.6984 40.6633 47.535 40.8267C47.4534 40.9083 47.36 40.9667 47.255 41.0133C47.1383 41.06 47.0333 41.0833 46.9167 41.0833Z" fill="white"/>
<path d="M27.0833 41.0833C26.85 41.0833 26.6283 40.99 26.465 40.8267C26.3833 40.745 26.3133 40.6517 26.2783 40.5467C26.2317 40.4417 26.2083 40.325 26.2083 40.2083C26.2083 40.0917 26.2317 39.9867 26.2783 39.87C26.3133 39.765 26.3833 39.6717 26.465 39.59C26.78 39.2633 27.375 39.2633 27.7017 39.59C27.7834 39.6717 27.8417 39.765 27.8883 39.87C27.935 39.9867 27.9583 40.0917 27.9583 40.2083C27.9583 40.325 27.935 40.4417 27.8883 40.5467C27.8417 40.6517 27.7834 40.745 27.7017 40.8267C27.5384 40.99 27.3167 41.0833 27.0833 41.0833Z" fill="white"/>
<path d="M46.9167 44C46.835 44 46.765 43.9883 46.695 43.9533C46.625 43.93 46.555 43.8833 46.5084 43.825C46.3917 43.72 46.3333 43.5683 46.3333 43.4167C46.3333 43.265 46.3917 43.1133 46.5084 43.0083C46.7184 42.7867 47.115 42.7867 47.325 43.0083C47.4416 43.1133 47.5 43.265 47.5 43.4167C47.5 43.5683 47.4416 43.72 47.325 43.825C47.22 43.9417 47.0683 44 46.9167 44Z" fill="white"/>
<path d="M27.0833 44C26.9317 44 26.78 43.9417 26.675 43.825C26.5584 43.72 26.5 43.5683 26.5 43.4167C26.5 43.265 26.5584 43.1133 26.675 43.0083C26.885 42.7867 27.2816 42.7867 27.4916 43.0083C27.6083 43.1133 27.6667 43.265 27.6667 43.4167C27.6667 43.5683 27.6083 43.72 27.4916 43.825C27.3866 43.9417 27.235 44 27.0833 44Z" fill="white"/>
<path d="M32.0417 31.1667C31.925 31.1667 31.8083 31.155 31.7033 31.1317C31.5867 31.1083 31.4816 31.0733 31.3766 31.0267C31.26 30.9917 31.1666 30.9333 31.0733 30.875C30.9683 30.805 30.8867 30.735 30.805 30.6533C30.4783 30.3267 30.2917 29.8717 30.2917 29.4167C30.2917 28.9617 30.4783 28.5067 30.805 28.18C31.4583 27.5267 32.625 27.5267 33.2783 28.18C33.605 28.5067 33.7917 28.95 33.7917 29.4167C33.7917 29.8833 33.605 30.3267 33.2783 30.6533C33.1967 30.735 33.1033 30.805 33.01 30.875C32.9167 30.9333 32.8117 30.9917 32.7067 31.0267C32.6017 31.0733 32.4966 31.1083 32.38 31.1317C32.275 31.155 32.1583 31.1667 32.0417 31.1667Z" fill="white"/>
<path d="M41.9583 31.1667C41.8417 31.1667 41.725 31.155 41.62 31.1317C41.5034 31.1083 41.3983 31.0733 41.2933 31.0267C41.1883 30.9917 41.0833 30.9333 40.99 30.875C40.8967 30.805 40.8033 30.735 40.7217 30.6533C40.64 30.5717 40.57 30.4783 40.5 30.385C40.4417 30.2917 40.3833 30.1867 40.3367 30.0817C40.3017 29.9767 40.2667 29.8717 40.2434 29.755C40.22 29.65 40.2083 29.5333 40.2083 29.4167C40.2083 28.9617 40.395 28.5067 40.7217 28.18C40.8033 28.0983 40.8967 28.0283 40.99 27.9583C41.0833 27.9 41.1883 27.8417 41.2933 27.8067C41.3983 27.76 41.5034 27.725 41.62 27.7017C41.8417 27.655 42.075 27.655 42.2967 27.7017C42.4133 27.725 42.5184 27.76 42.6234 27.8067C42.7284 27.8417 42.8334 27.9 42.9267 27.9583C43.02 28.0283 43.1133 28.0983 43.195 28.18C43.5217 28.5067 43.7083 28.9617 43.7083 29.4167C43.7083 29.5333 43.6966 29.65 43.6733 29.755C43.65 29.8717 43.615 29.9767 43.58 30.0817C43.5334 30.1867 43.475 30.2917 43.4167 30.385C43.3467 30.4783 43.2767 30.5717 43.195 30.6533C43.1133 30.735 43.02 30.805 42.9267 30.875C42.8334 30.9333 42.7284 30.9917 42.6234 31.0267C42.5184 31.0733 42.4133 31.1083 42.2967 31.1317C42.1917 31.155 42.075 31.1667 41.9583 31.1667Z" fill="white"/>
<path d="M32.0417 36.125C31.925 36.125 31.8083 36.1133 31.7033 36.09C31.5867 36.0667 31.4816 36.0317 31.3766 35.9967C31.2716 35.95 31.1666 35.8917 31.0733 35.8333C30.9683 35.7633 30.8867 35.6933 30.805 35.6117C30.4783 35.285 30.2917 34.83 30.2917 34.375C30.2917 33.9083 30.4783 33.465 30.805 33.1383C31.4583 32.485 32.625 32.485 33.2783 33.1383C33.605 33.465 33.7917 33.9083 33.7917 34.375C33.7917 34.8417 33.605 35.285 33.2783 35.6117C32.9517 35.9383 32.4967 36.125 32.0417 36.125Z" fill="white"/>
<path d="M41.9583 36.125C41.8417 36.125 41.725 36.1133 41.62 36.09C41.5034 36.0667 41.3983 36.0317 41.2933 35.985C41.1883 35.95 41.0833 35.8917 40.99 35.8333C40.8967 35.7633 40.8033 35.6933 40.7217 35.6117C40.64 35.53 40.57 35.4367 40.5 35.3433C40.4417 35.25 40.3833 35.145 40.3367 35.04C40.3017 34.935 40.2667 34.83 40.2434 34.7133C40.22 34.6083 40.2083 34.4917 40.2083 34.375C40.2083 33.92 40.395 33.465 40.7217 33.1383C40.8033 33.0567 40.8967 32.9867 40.99 32.9167C41.0833 32.8583 41.1883 32.8 41.2933 32.765C41.3983 32.7183 41.5034 32.6833 41.62 32.66C41.8417 32.6133 42.075 32.6133 42.2967 32.66C42.4133 32.6833 42.5184 32.7183 42.6234 32.765C42.7284 32.8 42.8334 32.8583 42.9267 32.9167C43.02 32.9867 43.1133 33.0567 43.195 33.1383C43.5217 33.465 43.7083 33.92 43.7083 34.375C43.7083 34.4917 43.6966 34.6083 43.6733 34.7133C43.65 34.83 43.615 34.935 43.58 35.04C43.5334 35.145 43.475 35.25 43.4167 35.3433C43.3467 35.4367 43.2767 35.53 43.195 35.6117C43.1133 35.6933 43.02 35.7633 42.9267 35.8333C42.8334 35.8917 42.7284 35.95 42.6234 35.985C42.5184 36.0317 42.4133 36.0667 42.2967 36.09C42.1917 36.1133 42.075 36.125 41.9583 36.125Z" fill="white"/>
<path d="M32.0417 40.2083C31.89 40.2083 31.7383 40.1733 31.5983 40.115C31.4467 40.0567 31.3183 39.975 31.2133 39.87C31.1083 39.7534 31.0267 39.625 30.9684 39.485C30.91 39.345 30.875 39.1933 30.875 39.0417C30.875 38.7383 31.0033 38.435 31.2133 38.2133C31.645 37.7817 32.4384 37.7817 32.87 38.2133C33.08 38.435 33.2083 38.7383 33.2083 39.0417C33.2083 39.1933 33.1733 39.345 33.115 39.485C33.0566 39.625 32.975 39.7534 32.87 39.87C32.6484 40.08 32.345 40.2083 32.0417 40.2083Z" fill="white"/>
<path d="M41.9583 40.2083C41.655 40.2083 41.3516 40.08 41.13 39.87C40.92 39.6484 40.7917 39.345 40.7917 39.0417C40.7917 38.7383 40.92 38.435 41.13 38.2133C41.5616 37.7817 42.3433 37.7817 42.7867 38.2133C42.9967 38.435 43.125 38.7383 43.125 39.0417C43.125 39.1233 43.1133 39.1933 43.1016 39.275C43.09 39.345 43.0666 39.415 43.0316 39.485C43.0083 39.555 42.9733 39.625 42.9267 39.6833C42.88 39.7533 42.8333 39.8117 42.7867 39.87C42.565 40.08 42.2617 40.2083 41.9583 40.2083Z" fill="white"/>
<path d="M32.0417 43.7083C31.8083 43.7083 31.5866 43.615 31.4233 43.4517C31.3416 43.37 31.2833 43.2767 31.2367 43.1717C31.19 43.0667 31.1667 42.95 31.1667 42.8333C31.1667 42.7167 31.19 42.6117 31.2367 42.495C31.2833 42.39 31.3416 42.2967 31.4233 42.215C31.505 42.1333 31.5983 42.075 31.7033 42.0283C31.9133 41.935 32.1583 41.935 32.38 42.0283C32.485 42.075 32.5784 42.1333 32.66 42.215C32.8234 42.3783 32.9167 42.6 32.9167 42.8333C32.9167 42.95 32.8933 43.0667 32.8467 43.1717C32.8 43.2767 32.7417 43.37 32.66 43.4517C32.4967 43.615 32.275 43.7083 32.0417 43.7083Z" fill="white"/>
<path d="M41.9583 43.7083C41.8417 43.7083 41.725 43.685 41.62 43.6383C41.515 43.5917 41.4216 43.5333 41.34 43.4517C41.2583 43.37 41.1883 43.2767 41.1533 43.1717C41.1067 43.0667 41.0833 42.95 41.0833 42.8333C41.0833 42.7167 41.1067 42.6 41.1533 42.495C41.2 42.39 41.2583 42.2967 41.34 42.215C41.4216 42.1333 41.515 42.075 41.62 42.0283C41.83 41.935 42.075 41.935 42.2967 42.0283C42.4017 42.075 42.495 42.1333 42.5767 42.215C42.6584 42.2967 42.7167 42.39 42.7633 42.495C42.81 42.6 42.8333 42.7167 42.8333 42.8333C42.8333 42.95 42.81 43.0667 42.7633 43.1717C42.7167 43.2767 42.6584 43.37 42.5767 43.4517C42.4134 43.615 42.1917 43.7083 41.9583 43.7083Z" fill="white"/>
<path d="M32.0417 46.3333C31.89 46.3333 31.7384 46.275 31.6334 46.1583C31.5167 46.0533 31.4583 45.9017 31.4583 45.75C31.4583 45.5983 31.5167 45.4467 31.6334 45.3417C31.8434 45.12 32.24 45.12 32.45 45.3417C32.5666 45.4467 32.625 45.5983 32.625 45.75C32.625 45.9017 32.5666 46.0533 32.45 46.1583C32.345 46.275 32.1933 46.3333 32.0417 46.3333Z" fill="white"/>
<path d="M41.9583 46.3333C41.8767 46.3333 41.8067 46.3217 41.7367 46.2867C41.6667 46.2633 41.5967 46.2167 41.55 46.1583C41.4917 46.1117 41.445 46.0417 41.4216 45.9717C41.3866 45.9017 41.375 45.8317 41.375 45.75C41.375 45.5983 41.4334 45.4467 41.55 45.3417C41.76 45.12 42.1566 45.12 42.3666 45.3417C42.4833 45.4467 42.5417 45.5983 42.5417 45.75C42.5417 45.8317 42.53 45.9017 42.495 45.9717C42.4717 46.0417 42.425 46.1117 42.3666 46.1583C42.2616 46.275 42.11 46.3333 41.9583 46.3333Z" fill="white"/>
</svg>
