<svg width="74" height="74" viewBox="0 0 74 74" fill="none" xmlns="http://www.w3.org/2000/svg">
<path d="M17.7422 10.7728C19.3321 7.81937 22.2704 6 25.4503 6L48.5497 6C51.7296 6 54.6679 7.81937 56.2578 10.7728L67.8076 32.2272C69.3975 35.1806 69.3975 38.8194 67.8076 41.7728L56.2578 63.2272C54.6679 66.1806 51.7296 68 48.5497 68H25.4503C22.2704 68 19.3321 66.1806 17.7422 63.2272L6.19244 41.7728C4.60252 38.8194 4.60252 35.1806 6.19244 32.2272L17.7422 10.7728Z" fill="#0C4A6E"/>
<path d="M48.155 32.1103V32.1117V41.8883C48.155 43.9122 47.5537 45.4676 46.5048 46.5164C45.4559 47.5653 43.9006 48.1667 41.8767 48.1667H32.1117C30.0878 48.1667 28.5326 47.5653 27.4838 46.5152C26.4349 45.465 25.8333 43.9068 25.8333 41.8767V32.1117C25.8333 30.0878 26.4347 28.5324 27.4836 27.4836C28.5324 26.4347 30.0878 25.8333 32.1117 25.8333H41.8883C43.9123 25.8333 45.4675 26.4347 46.5148 27.4833C47.562 28.5318 48.1606 30.0867 48.155 32.1103ZM28.6251 36.8631L28.625 36.8631V36.8717C28.625 37.6087 29.2167 38.2583 29.9883 38.2583H30C30.744 38.2583 31.3679 37.6626 31.3865 36.9192L31.3865 36.9192L31.3866 36.914C31.4081 35.4444 31.9864 34.064 33.0252 33.0252C34.087 31.9634 35.5001 31.375 37 31.375C38.1247 31.375 39.2006 31.7058 40.1161 32.319C39.5225 32.4709 39.0783 33.0134 39.0783 33.6517C39.0783 34.4061 39.6989 35.0267 40.4533 35.0267H43.545C44.2995 35.0267 44.92 34.4061 44.92 33.6517V30.56C44.92 29.8055 44.2995 29.185 43.545 29.185C42.8384 29.185 42.2493 29.7293 42.1774 30.4182C40.7085 29.2532 38.8978 28.625 37 28.625C34.7678 28.625 32.6572 29.4941 31.0698 31.0814C29.5307 32.6206 28.6623 34.6813 28.6251 36.8631ZM37 45.375C39.2332 45.375 41.3432 44.4936 42.9179 42.9193C44.4948 41.3543 45.3633 39.2547 45.3633 37.0117C45.3633 36.2572 44.7428 35.6367 43.9883 35.6367C43.2339 35.6367 42.6133 36.2572 42.6133 37.0117C42.6133 38.5113 42.0251 39.9128 40.9748 40.9631C39.913 42.0249 38.4999 42.6133 37 42.6133C35.8753 42.6133 34.7995 42.2825 33.8839 41.6693C34.4775 41.5174 34.9217 40.975 34.9217 40.3367C34.9217 39.5822 34.3012 38.9617 33.5467 38.9617H30.455C29.7005 38.9617 29.08 39.5822 29.08 40.3367V43.4283C29.08 44.1828 29.7005 44.8033 30.455 44.8033C31.158 44.8033 31.7446 44.2647 31.8215 43.5809C33.2905 44.7464 35.1017 45.375 37 45.375Z" fill="white" stroke="white"/>
</svg>
