<svg width="74" height="74" viewBox="0 0 74 74" fill="none" xmlns="http://www.w3.org/2000/svg">
<path d="M17.7422 10.7728C19.3321 7.81937 22.2704 6 25.4503 6L48.5497 6C51.7296 6 54.6679 7.81937 56.2578 10.7728L67.8076 32.2272C69.3975 35.1806 69.3975 38.8194 67.8076 41.7728L56.2578 63.2272C54.6679 66.1806 51.7296 68 48.5497 68H25.4503C22.2704 68 19.3321 66.1806 17.7422 63.2272L6.19244 41.7728C4.60252 38.8194 4.60252 35.1806 6.19244 32.2272L17.7422 10.7728Z" fill="#FF8614"/>
<g clip-path="url(#clip0_1_3802)">
<path d="M31.925 47.395C31.89 47.395 31.8433 47.4183 31.8083 47.4183C29.545 46.2983 27.7017 44.4433 26.57 42.18C26.57 42.145 26.5933 42.0983 26.5933 42.0633C28.0167 42.4833 29.4867 42.7983 30.945 43.0433C31.2017 44.5133 31.505 45.9717 31.925 47.395Z" fill="white"/>
<path d="M43.5004 43.4765C44.5103 43.3 45.5114 43.089 46.503 42.8321C45.5834 44.3254 44.314 45.5868 42.8141 46.511C43.0863 45.5077 43.3211 44.4959 43.5004 43.4765Z" fill="white" stroke="white"/>
<path d="M47.5233 31.995C46.0533 31.5517 44.5717 31.19 43.0667 30.9333C42.8217 29.4283 42.46 27.935 42.005 26.4767C44.42 27.6317 46.3683 29.58 47.5233 31.995Z" fill="white"/>
<path d="M31.925 26.605C31.505 28.0283 31.2017 29.475 30.9567 30.945C29.4517 31.1783 27.9583 31.5517 26.4767 31.995C27.6083 29.65 29.4867 27.725 31.8083 26.57C31.8433 26.57 31.89 26.605 31.925 26.605Z" fill="white"/>
<path d="M41.0717 30.6883C38.365 30.385 35.635 30.385 32.9283 30.6883C33.22 29.09 33.5933 27.4917 34.1183 25.9517C34.1417 25.8583 34.13 25.7883 34.1417 25.695C35.0633 25.4733 36.0083 25.3333 37 25.3333C37.98 25.3333 38.9367 25.4733 39.8467 25.695C39.8583 25.7883 39.8583 25.8583 39.8817 25.9517C40.4067 27.5033 40.78 29.09 41.0717 30.6883Z" fill="white"/>
<path d="M30.6883 41.0717C29.0783 40.78 27.4917 40.4067 25.9517 39.8817C25.8583 39.8583 25.7883 39.87 25.695 39.8583C25.4733 38.9367 25.3333 37.9917 25.3333 37C25.3333 36.02 25.4733 35.0633 25.695 34.1533C25.7883 34.1417 25.8583 34.1417 25.9517 34.1183C27.5033 33.605 29.0783 33.22 30.6883 32.9283C30.3967 35.635 30.3967 38.365 30.6883 41.0717Z" fill="white"/>
<path d="M48.6667 37C48.6667 37.9917 48.5267 38.9367 48.305 39.8583C48.2117 39.87 48.1417 39.8583 48.0483 39.8817C46.4967 40.395 44.91 40.78 43.3117 41.0717C43.615 38.365 43.615 35.635 43.3117 32.9283C44.91 33.22 46.5083 33.5933 48.0483 34.1183C48.1417 34.1417 48.2117 34.1533 48.305 34.1533C48.5267 35.075 48.6667 36.02 48.6667 37Z" fill="white"/>
<path d="M41.0717 43.3117C40.78 44.9217 40.4067 46.5083 39.8817 48.0483C39.8583 48.1417 39.8583 48.2117 39.8467 48.305C38.9367 48.5267 37.98 48.6667 37 48.6667C36.0083 48.6667 35.0633 48.5267 34.1417 48.305C34.13 48.2117 34.1417 48.1417 34.1183 48.0483C33.605 46.4967 33.22 44.9217 32.9283 43.3117C34.2817 43.4633 35.635 43.5683 37 43.5683C38.365 43.5683 39.73 43.4633 41.0717 43.3117Z" fill="white"/>
<path d="M41.3906 41.3906C38.4726 41.7587 35.5274 41.7587 32.6095 41.3906C32.2413 38.4726 32.2413 35.5274 32.6095 32.6095C35.5274 32.2413 38.4726 32.2413 41.3906 32.6095C41.7587 35.5274 41.7587 38.4726 41.3906 41.3906Z" fill="white"/>
</g>
<defs>
<clipPath id="clip0_1_3802">
<rect width="28" height="28" fill="white" transform="translate(23 23)"/>
</clipPath>
</defs>
</svg>
