<svg width="74" height="74" viewBox="0 0 74 74" fill="none" xmlns="http://www.w3.org/2000/svg">
<path d="M17.7422 10.7728C19.3321 7.81937 22.2704 6 25.4503 6L48.5497 6C51.7296 6 54.6679 7.81937 56.2578 10.7728L67.8076 32.2272C69.3975 35.1806 69.3975 38.8194 67.8076 41.7728L56.2578 63.2272C54.6679 66.1806 51.7296 68 48.5497 68H25.4503C22.2704 68 19.3321 66.1806 17.7422 63.2272L6.19244 41.7728C4.60252 38.8194 4.60252 35.1806 6.19244 32.2272L17.7422 10.7728Z" fill="#862AF3"/>
<path d="M48.6667 45.1667V48.6667H25.3333V45.1667C25.3333 44.525 25.8583 44 26.5 44H47.5C48.1417 44 48.6667 44.525 48.6667 45.1667Z" fill="white" stroke="white" stroke-width="1.5" stroke-miterlimit="10" stroke-linecap="round" stroke-linejoin="round"/>
<path d="M31.1667 35.8333H28.8333V44H31.1667V35.8333Z" fill="white"/>
<path d="M35.8333 35.8333H33.5V44H35.8333V35.8333Z" fill="white"/>
<path d="M40.5 35.8333H38.1667V44H40.5V35.8333Z" fill="white"/>
<path d="M45.1667 35.8333H42.8333V44H45.1667V35.8333Z" fill="white"/>
<path d="M49.8333 49.5417H24.1667C23.6883 49.5417 23.2917 49.145 23.2917 48.6667C23.2917 48.1883 23.6883 47.7917 24.1667 47.7917H49.8333C50.3117 47.7917 50.7083 48.1883 50.7083 48.6667C50.7083 49.145 50.3117 49.5417 49.8333 49.5417Z" fill="white"/>
<path d="M47.9317 29.7083L37.4317 25.5083C37.1983 25.415 36.8017 25.415 36.5683 25.5083L26.0683 29.7083C25.66 29.8717 25.3333 30.35 25.3333 30.7933V34.6667C25.3333 35.3083 25.8583 35.8333 26.5 35.8333H47.5C48.1417 35.8333 48.6667 35.3083 48.6667 34.6667V30.7933C48.6667 30.35 48.34 29.8717 47.9317 29.7083ZM37 32.9167C36.0317 32.9167 35.25 32.135 35.25 31.1667C35.25 30.1983 36.0317 29.4167 37 29.4167C37.9683 29.4167 38.75 30.1983 38.75 31.1667C38.75 32.135 37.9683 32.9167 37 32.9167Z" fill="white"/>
</svg>
