<svg width="25" height="24" viewBox="0 0 25 24" fill="none" xmlns="http://www.w3.org/2000/svg">
<path d="M16.69 2H8.31C4.67 2 2.5 4.17 2.5 7.81V16.18C2.5 19.83 4.67 22 8.31 22H16.68C20.32 22 22.49 19.83 22.49 16.19V7.81C22.5 4.17 20.33 2 16.69 2ZM8.13 18.15C8.13 18.56 7.79 18.9 7.38 18.9C6.97 18.9 6.63 18.56 6.63 18.15V16.08C6.63 15.67 6.97 15.33 7.38 15.33C7.79 15.33 8.13 15.67 8.13 16.08V18.15ZM13.25 18.15C13.25 18.56 12.91 18.9 12.5 18.9C12.09 18.9 11.75 18.56 11.75 18.15V14C11.75 13.59 12.09 13.25 12.5 13.25C12.91 13.25 13.25 13.59 13.25 14V18.15ZM18.37 18.15C18.37 18.56 18.03 18.9 17.62 18.9C17.21 18.9 16.87 18.56 16.87 18.15V11.93C16.87 11.52 17.21 11.18 17.62 11.18C18.03 11.18 18.37 11.52 18.37 11.93V18.15ZM18.37 8.77C18.37 9.18 18.03 9.52 17.62 9.52C17.21 9.52 16.87 9.18 16.87 8.77V7.8C14.32 10.42 11.13 12.27 7.56 13.16C7.5 13.18 7.44 13.18 7.38 13.18C7.04 13.18 6.74 12.95 6.65 12.61C6.55 12.21 6.79 11.8 7.2 11.7C10.57 10.86 13.57 9.09 15.95 6.59H14.7C14.29 6.59 13.95 6.25 13.95 5.84C13.95 5.43 14.29 5.09 14.7 5.09H17.63C17.67 5.09 17.7 5.11 17.74 5.11C17.79 5.12 17.84 5.12 17.89 5.14C17.94 5.16 17.98 5.19 18.03 5.22C18.06 5.24 18.09 5.25 18.12 5.27C18.13 5.28 18.13 5.29 18.14 5.29C18.18 5.33 18.21 5.37 18.24 5.41C18.27 5.45 18.3 5.48 18.31 5.52C18.33 5.56 18.33 5.6 18.34 5.65C18.35 5.7 18.37 5.75 18.37 5.81C18.37 5.82 18.38 5.83 18.38 5.84V8.77H18.37Z" fill="#22C55E"/>
</svg>
