<svg width="24" height="24" viewBox="0 0 24 24" fill="none" xmlns="http://www.w3.org/2000/svg">
<path d="M9.00005 14.22H3.92005C3.31005 14.22 2.75005 14.53 2.43005 15.05C2.11005 15.56 2.08005 16.17 2.34005 16.71C3.57005 19.23 5.79005 21.21 8.43005 22.14C8.61005 22.2 8.81005 22.24 9.00005 22.24C9.35005 22.24 9.70005 22.13 10 21.92C10.47 21.59 10.75 21.05 10.75 20.48L10.76 15.98C10.76 15.51 10.58 15.07 10.25 14.74C9.91005 14.41 9.47005 14.22 9.00005 14.22Z" fill="white"/>
<path d="M22.48 9.6C21.36 4.68 17.05 1.25 12 1.25C6.95005 1.25 2.64005 4.68 1.52005 9.6C1.40005 10.12 1.52005 10.65 1.86005 11.07C2.20005 11.49 2.70005 11.73 3.24005 11.73H20.7701C21.3101 11.73 21.81 11.49 22.15 11.07C22.48 10.65 22.6 10.11 22.48 9.6Z" fill="white"/>
<path d="M20.0601 14.27L15.0001 14.26C14.5301 14.26 14.0901 14.44 13.7601 14.77C13.4301 15.1 13.2501 15.54 13.2501 16.01L13.2601 20.49C13.2601 21.06 13.5401 21.6 14.0101 21.93C14.3101 22.14 14.6601 22.25 15.0101 22.25C15.2001 22.25 15.3901 22.22 15.5701 22.15C18.1901 21.23 20.4101 19.26 21.6401 16.77C21.9001 16.24 21.8701 15.62 21.5601 15.12C21.2301 14.58 20.6701 14.27 20.0601 14.27Z" fill="white"/>
</svg>
