<svg width="15" height="14" viewBox="0 0 15 14" fill="none" xmlns="http://www.w3.org/2000/svg">
<path d="M10.1692 8.33583L7.66666 10.8442L5.16416 8.33583C5.05432 8.22599 4.90534 8.16428 4.75 8.16428C4.59465 8.16428 4.44567 8.22599 4.33583 8.33583C4.22599 8.44567 4.16428 8.59465 4.16428 8.75C4.16428 8.90534 4.22599 9.05432 4.33583 9.16416L7.2525 12.0808C7.30672 12.1355 7.37124 12.1789 7.44233 12.2085C7.51341 12.2381 7.58966 12.2534 7.66666 12.2534C7.74367 12.2534 7.81991 12.2381 7.891 12.2085C7.96208 12.1789 8.0266 12.1355 8.08083 12.0808L10.9975 9.16416C11.0519 9.10977 11.095 9.0452 11.1245 8.97414C11.1539 8.90308 11.169 8.82691 11.169 8.75C11.169 8.67308 11.1539 8.59691 11.1245 8.52585C11.095 8.45479 11.0519 8.39022 10.9975 8.33583C10.9431 8.28144 10.8785 8.2383 10.8075 8.20886C10.7364 8.17943 10.6602 8.16428 10.5833 8.16428C10.5064 8.16428 10.4302 8.17943 10.3592 8.20886C10.2881 8.2383 10.2236 8.28144 10.1692 8.33583ZM5.16416 5.66416L7.66666 3.15583L10.1692 5.66416C10.2234 5.71884 10.2879 5.76223 10.359 5.79185C10.4301 5.82146 10.5063 5.83671 10.5833 5.83671C10.6603 5.83671 10.7366 5.82146 10.8077 5.79185C10.8788 5.76223 10.9433 5.71884 10.9975 5.66416C11.0522 5.60993 11.0956 5.54542 11.1252 5.47433C11.1548 5.40325 11.17 5.327 11.17 5.25C11.17 5.17299 11.1548 5.09674 11.1252 5.02566C11.0956 4.95457 11.0522 4.89006 10.9975 4.83583L8.08083 1.91916C8.0266 1.86449 7.96208 1.82109 7.891 1.79147C7.81991 1.76186 7.74367 1.74661 7.66666 1.74661C7.58966 1.74661 7.51341 1.76186 7.44233 1.79147C7.37124 1.82109 7.30672 1.86449 7.2525 1.91916L4.33583 4.83583C4.22599 4.94567 4.16428 5.09465 4.16428 5.25C4.16428 5.40534 4.22599 5.55432 4.33583 5.66416C4.44567 5.77401 4.59465 5.83572 4.75 5.83572C4.90534 5.83572 5.05432 5.77401 5.16416 5.66416Z" fill="#475569"/>
</svg>
