<svg width="15" height="14" viewBox="0 0 15 14" fill="none" xmlns="http://www.w3.org/2000/svg">
<path d="M10.0025 8.33583L7.50001 10.8442L4.99751 8.33583C4.88766 8.22599 4.73868 8.16428 4.58334 8.16428C4.428 8.16428 4.27902 8.22599 4.16917 8.33583C4.05933 8.44567 3.99762 8.59465 3.99762 8.75C3.99762 8.90534 4.05933 9.05432 4.16917 9.16416L7.08584 12.0808C7.14007 12.1355 7.20459 12.1789 7.27567 12.2085C7.34675 12.2381 7.423 12.2534 7.50001 12.2534C7.57701 12.2534 7.65326 12.2381 7.72434 12.2085C7.79543 12.1789 7.85994 12.1355 7.91417 12.0808L10.8308 9.16416C10.8852 9.10977 10.9284 9.0452 10.9578 8.97414C10.9872 8.90308 11.0024 8.82691 11.0024 8.75C11.0024 8.67308 10.9872 8.59691 10.9578 8.52585C10.9284 8.45479 10.8852 8.39022 10.8308 8.33583C10.7764 8.28144 10.7119 8.2383 10.6408 8.20886C10.5698 8.17943 10.4936 8.16428 10.4167 8.16428C10.3398 8.16428 10.2636 8.17943 10.1925 8.20886C10.1215 8.2383 10.0569 8.28144 10.0025 8.33583ZM4.99751 5.66416L7.50001 3.15583L10.0025 5.66416C10.0567 5.71884 10.1213 5.76223 10.1923 5.79185C10.2634 5.82146 10.3397 5.83671 10.4167 5.83671C10.4937 5.83671 10.5699 5.82146 10.641 5.79185C10.7121 5.76223 10.7766 5.71884 10.8308 5.66416C10.8855 5.60993 10.9289 5.54542 10.9585 5.47433C10.9881 5.40325 11.0034 5.327 11.0034 5.25C11.0034 5.17299 10.9881 5.09674 10.9585 5.02566C10.9289 4.95457 10.8855 4.89006 10.8308 4.83583L7.91417 1.91916C7.85994 1.86449 7.79543 1.82109 7.72434 1.79147C7.65326 1.76186 7.57701 1.74661 7.50001 1.74661C7.423 1.74661 7.34675 1.76186 7.27567 1.79147C7.20459 1.82109 7.14007 1.86449 7.08584 1.91916L4.16917 4.83583C4.05933 4.94567 3.99762 5.09465 3.99762 5.25C3.99762 5.40534 4.05933 5.55432 4.16917 5.66416C4.27902 5.77401 4.428 5.83572 4.58334 5.83572C4.73868 5.83572 4.88766 5.77401 4.99751 5.66416Z" fill="#475569"/>
</svg>
