<svg width="15" height="14" viewBox="0 0 15 14" fill="none" xmlns="http://www.w3.org/2000/svg">
<path d="M9.83584 8.33583L7.33334 10.8442L4.83084 8.33583C4.721 8.22599 4.57202 8.16428 4.41668 8.16428C4.26133 8.16428 4.11235 8.22599 4.00251 8.33583C3.89267 8.44567 3.83096 8.59465 3.83096 8.75C3.83096 8.90534 3.89267 9.05432 4.00251 9.16416L6.91918 12.0808C6.9734 12.1355 7.03792 12.1789 7.10901 12.2085C7.18009 12.2381 7.25634 12.2534 7.33334 12.2534C7.41035 12.2534 7.48659 12.2381 7.55768 12.2085C7.62876 12.1789 7.69328 12.1355 7.74751 12.0808L10.6642 9.16416C10.7186 9.10977 10.7617 9.0452 10.7911 8.97414C10.8206 8.90308 10.8357 8.82691 10.8357 8.75C10.8357 8.67308 10.8206 8.59691 10.7911 8.52585C10.7617 8.45479 10.7186 8.39022 10.6642 8.33583C10.6098 8.28144 10.5452 8.2383 10.4742 8.20886C10.4031 8.17943 10.3269 8.16428 10.25 8.16428C10.1731 8.16428 10.0969 8.17943 10.0259 8.20886C9.9548 8.2383 9.89023 8.28144 9.83584 8.33583ZM4.83084 5.66416L7.33334 3.15583L9.83584 5.66416C9.89007 5.71884 9.95459 5.76223 10.0257 5.79185C10.0968 5.82146 10.173 5.83671 10.25 5.83671C10.327 5.83671 10.4033 5.82146 10.4743 5.79185C10.5454 5.76223 10.6099 5.71884 10.6642 5.66416C10.7188 5.60993 10.7622 5.54542 10.7919 5.47433C10.8215 5.40325 10.8367 5.327 10.8367 5.25C10.8367 5.17299 10.8215 5.09674 10.7919 5.02566C10.7622 4.95457 10.7188 4.89006 10.6642 4.83583L7.74751 1.91916C7.69328 1.86449 7.62876 1.82109 7.55768 1.79147C7.48659 1.76186 7.41035 1.74661 7.33334 1.74661C7.25634 1.74661 7.18009 1.76186 7.10901 1.79147C7.03792 1.82109 6.9734 1.86449 6.91918 1.91916L4.00251 4.83583C3.89267 4.94567 3.83096 5.09465 3.83096 5.25C3.83096 5.40534 3.89267 5.55432 4.00251 5.66416C4.11235 5.77401 4.26133 5.83572 4.41668 5.83572C4.57202 5.83572 4.721 5.77401 4.83084 5.66416Z" fill="#475569"/>
</svg>
